<?xml version="1.0" standalone="no"?>
<!DOCTYPE svg PUBLIC "-//W3C//DTD SVG 20010904//EN"
 "http://www.w3.org/TR/2001/REC-SVG-20010904/DTD/svg10.dtd">
<svg version="1.0" xmlns="http://www.w3.org/2000/svg"
 width="281.000000pt" height="281.000000pt" viewBox="0 0 281.000000 281.000000"
 preserveAspectRatio="xMidYMid meet">
<metadata>
Created by potrace 1.14, written by Peter Selinger 2001-2017
</metadata>
<g transform="translate(0.000000,281.000000) scale(0.100000,-0.100000)"
fill="#000000" stroke="none">
<path d="M90 1897 c-50 -25 -54 -57 -35 -287 2 -30 7 -93 11 -140 3 -47 10
-92 14 -100 7 -12 37 -15 169 -15 l161 0 0 277 0 278 -147 0 c-99 0 -156 -4
-173 -13z"/>
<path d="M448 1898 c-8 -22 12 -119 31 -156 24 -46 79 -99 151 -144 105 -68
136 -115 125 -197 -5 -39 -3 -48 10 -48 8 0 15 5 16 11 0 6 2 20 4 30 2 11 6
58 9 105 5 81 14 208 21 296 7 96 -28 115 -218 115 -104 0 -146 -3 -149 -12z"/>
<path d="M962 1848 c-18 -18 -15 -29 15 -60 23 -25 25 -31 13 -39 -13 -9 -13
-10 0 -6 26 7 23 39 -6 62 -31 25 -26 52 7 35 10 -6 19 -8 19 -6 0 14 -38 24
-48 14z"/>
<path d="M1383 1841 c0 -11 5 -17 9 -15 11 7 10 34 -1 34 -6 0 -9 -9 -8 -19z"/>
<path d="M1020 1846 c0 -2 9 -25 21 -51 16 -35 23 -44 30 -34 11 18 11 32 0
24 -5 -3 -15 11 -21 30 -6 19 -16 35 -21 35 -5 0 -9 -2 -9 -4z"/>
<path d="M1090 1839 c0 -5 5 -7 10 -4 6 3 10 8 10 11 0 2 -4 4 -10 4 -5 0 -10
-5 -10 -11z"/>
<path d="M1130 1795 c0 -30 5 -55 10 -55 6 0 10 12 10 28 l1 27 24 -27 c13
-16 30 -28 37 -28 7 0 -4 16 -24 35 -21 20 -38 44 -38 55 0 11 -4 20 -10 20
-5 0 -10 -25 -10 -55z"/>
<path d="M1177 1830 c-9 -11 -13 -20 -8 -20 4 0 16 9 26 20 10 11 14 20 9 20
-5 0 -17 -9 -27 -20z"/>
<path d="M1267 1797 l27 -55 13 25 c16 30 17 44 2 23 -6 -8 -12 -11 -15 -5
-16 37 -31 59 -41 62 -7 3 0 -20 14 -50z"/>
<path d="M1327 1830 c-3 -11 -2 -20 2 -20 5 0 7 -16 6 -35 -1 -24 3 -35 13
-35 9 0 12 6 8 16 -3 9 -6 33 -6 55 0 41 -14 53 -23 19z"/>
<path d="M1417 1843 c-10 -16 2 -42 25 -54 13 -7 18 -18 15 -29 -3 -13 0 -17
9 -13 21 8 17 29 -10 50 -13 11 -26 28 -28 39 -2 12 -6 15 -11 7z"/>
<path d="M1455 1840 c3 -5 8 -10 11 -10 2 0 4 5 4 10 0 6 -5 10 -11 10 -5 0
-7 -4 -4 -10z"/>
<path d="M1080 1809 c0 -5 5 -7 10 -4 6 3 10 8 10 11 0 2 -4 4 -10 4 -5 0 -10
-5 -10 -11z"/>
<path d="M950 1750 c0 -5 5 -10 11 -10 5 0 7 5 4 10 -3 6 -8 10 -11 10 -2 0
-4 -4 -4 -10z"/>
<path d="M1240 1750 c0 -5 5 -10 10 -10 6 0 10 5 10 10 0 6 -4 10 -10 10 -5 0
-10 -4 -10 -10z"/>
<path d="M1410 1750 c0 -5 5 -10 10 -10 6 0 10 5 10 10 0 6 -4 10 -10 10 -5 0
-10 -4 -10 -10z"/>
<path d="M2763 1728 c4 -10 2 -18 -4 -18 -6 0 -7 -5 -3 -11 4 -8 9 -7 15 2 8
13 13 5 10 -13 -2 -13 6 -9 20 10 7 9 9 14 5 10 -5 -4 -18 2 -29 15 -15 16
-19 18 -14 5z"/>
<path d="M2780 1736 c0 -2 7 -7 16 -10 8 -3 12 -2 9 4 -6 10 -25 14 -25 6z"/>
<path d="M2595 1651 c-34 -15 -56 -47 -58 -88 -2 -50 20 -78 99 -131 69 -46
85 -78 59 -118 -33 -51 -145 -16 -145 46 0 12 -4 19 -9 16 -12 -8 -13 -106 -1
-106 4 0 10 5 12 11 3 9 9 9 25 0 12 -6 42 -11 67 -11 55 0 94 29 105 80 13
58 -6 88 -97 149 -67 45 -89 79 -72 111 20 37 113 33 125 -5 15 -47 16 -49 23
-38 4 6 7 28 7 48 l-1 37 -59 3 c-33 2 -69 0 -80 -4z"/>
<path d="M950 1640 c0 -5 6 -10 14 -10 33 0 40 -30 41 -169 1 -128 -1 -137
-21 -158 -27 -27 -23 -30 41 -27 65 3 64 2 35 19 -24 13 -25 17 -30 154 -3 78
-4 141 -4 141 1 0 28 -33 60 -72 33 -40 67 -82 76 -93 9 -11 41 -50 71 -87 30
-37 58 -64 61 -61 3 4 6 74 6 157 0 171 4 196 31 196 11 0 19 5 19 10 0 6 -27
10 -60 10 -33 0 -60 -4 -60 -10 0 -5 6 -10 14 -10 8 0 18 -6 23 -12 8 -14 13
-238 5 -238 -3 0 -10 6 -16 14 -6 8 -55 69 -109 135 l-98 121 -50 0 c-27 0
-49 -4 -49 -10z"/>
<path d="M1370 1642 c0 -6 12 -13 26 -16 l25 -7 -6 -82 c-4 -45 -8 -91 -10
-102 -1 -11 -3 -39 -4 -63 -1 -31 -8 -50 -26 -67 -13 -14 -23 -25 -22 -26 7
-4 104 -4 111 0 5 2 -2 12 -15 22 -21 16 -24 25 -21 76 1 32 4 67 6 78 3 11 5
40 5 65 1 24 5 40 9 35 5 -6 33 -70 62 -143 30 -73 59 -131 65 -129 5 2 35 65
65 140 30 75 57 137 61 137 3 0 5 -10 5 -22 1 -13 4 -69 8 -125 7 -97 7 -102
-13 -113 -32 -17 -19 -25 38 -24 91 3 89 2 64 22 -23 18 -24 22 -39 197 -3 44
-7 82 -9 85 -7 12 16 50 30 50 8 0 15 5 15 10 0 6 -21 10 -47 10 l-48 0 -42
-103 c-23 -56 -50 -120 -59 -141 l-16 -40 -57 140 -57 139 -52 3 c-29 2 -52
-1 -52 -6z"/>
<path d="M1850 1641 c0 -5 9 -11 20 -14 19 -5 20 -14 20 -160 0 -146 -1 -157
-21 -170 -26 -19 -16 -24 46 -21 82 3 82 2 57 20 -21 15 -22 21 -22 171 0 146
1 155 20 160 43 11 17 23 -50 23 -38 0 -70 -4 -70 -9z"/>
<path d="M2040 1642 c0 -4 10 -12 23 -17 15 -7 21 -18 20 -35 -17 -257 -22
-285 -54 -295 -33 -11 -13 -19 47 -20 56 -1 83 12 45 22 -28 7 -33 29 -25 120
4 43 7 93 8 111 0 17 3 32 6 32 3 0 32 -65 64 -145 33 -79 62 -142 66 -140 4
2 33 68 65 145 32 77 59 139 61 138 1 -2 5 -44 9 -93 3 -50 8 -102 11 -117 3
-20 -2 -33 -16 -45 -11 -10 -20 -20 -20 -24 0 -7 128 -4 136 4 3 3 -3 8 -14
11 -27 9 -30 20 -37 123 -3 48 -8 108 -11 131 -6 52 2 82 22 82 8 0 14 5 14
11 0 6 -18 9 -46 7 l-46 -3 -56 -138 c-31 -75 -59 -134 -62 -130 -4 5 -31 68
-60 141 l-52 132 -49 0 c-27 0 -49 -3 -49 -8z"/>
<path d="M38 1324 c-3 -5 -4 -22 -3 -37 1 -20 -2 -26 -12 -23 -17 7 -17 1 3
-30 10 -14 23 -23 30 -20 7 3 15 0 17 -7 8 -22 19 2 13 28 -7 27 -22 33 -29
13 -2 -7 -2 -1 0 13 4 28 -11 78 -19 63z"/>
<path d="M802 1303 c-5 -17 -8 -34 -5 -37 4 -3 2 -6 -4 -6 -11 0 -34 -45 -26
-53 11 -11 59 15 70 38 14 31 6 32 -25 3 l-24 -23 20 35 c13 22 17 42 13 54
-7 18 -9 16 -19 -11z"/>
<path d="M90 1316 c0 -1 5 -16 10 -32 l10 -29 150 3 150 3 0 30 0 29 -160 0
c-88 0 -160 -2 -160 -4z"/>
<path d="M449 1318 c-1 -2 -2 -69 -3 -150 -1 -103 2 -148 10 -148 6 0 39 14
73 31 103 52 195 148 230 242 l11 27 -160 0 c-88 0 -161 -1 -161 -2z"/>
<path d="M95 1190 c-3 -5 -3 -16 1 -22 4 -7 -2 -5 -14 5 -28 25 -48 13 -23
-14 21 -23 68 -32 74 -15 6 16 -30 59 -38 46z"/>
<path d="M150 1193 c0 -3 13 -18 29 -32 27 -24 36 -26 112 -24 46 0 92 2 102
2 12 1 17 9 17 31 l0 30 -130 0 c-72 0 -130 -3 -130 -7z"/>
<path d="M743 1194 c3 -4 -1 -13 -9 -21 -37 -37 22 -54 61 -17 13 12 21 25 18
28 -10 10 -21 7 -37 -10 -15 -14 -16 -14 -16 5 0 12 -5 21 -12 21 -6 0 -9 -3
-5 -6z"/>
<path d="M953 1183 c9 -8 1730 -10 1777 -2 19 4 -374 7 -874 8 -500 0 -906 -2
-903 -6z"/>
<path d="M136 1132 c-4 -6 -2 -13 4 -17 5 -3 10 -11 10 -17 0 -6 -8 -4 -18 5
-10 10 -27 17 -37 17 -17 0 -16 -2 5 -24 22 -24 80 -33 80 -13 0 5 5 5 10 2 6
-4 8 -10 5 -15 -6 -9 32 -60 46 -60 19 0 8 37 -18 60 -16 12 -40 34 -54 47
-16 15 -29 20 -33 15z"/>
<path d="M688 1115 c-28 -38 -20 -61 11 -32 11 10 13 10 7 0 -13 -23 28 -14
53 12 22 24 22 25 3 25 -12 0 -24 -4 -27 -10 -11 -18 -23 -11 -18 10 7 27 -8
25 -29 -5z"/>
<path d="M644 1092 c3 -6 -5 -22 -19 -36 -13 -13 -27 -21 -30 -16 -6 10 -49
-28 -58 -52 -10 -27 18 -22 41 6 16 21 25 24 65 20 28 -3 47 -1 47 5 0 5 10
13 22 17 19 6 20 7 4 16 -12 7 -24 5 -41 -6 -29 -19 -44 -21 -27 -4 15 15 15
45 0 54 -6 4 -8 3 -4 -4z"/>
<path d="M1630 1044 c10 -87 70 -87 80 0 4 29 2 46 -5 46 -6 0 -9 -15 -7 -38
3 -26 -1 -42 -13 -52 -24 -20 -38 1 -33 49 3 32 0 41 -12 41 -13 0 -15 -9 -10
-46z"/>
<path d="M1758 1083 c6 -2 13 -17 13 -31 1 -18 3 -21 6 -9 4 15 11 10 41 -24
l37 -41 1 56 c1 31 -3 56 -7 56 -5 0 -7 -16 -5 -35 6 -44 -2 -44 -34 0 -15 20
-33 34 -45 34 -11 0 -14 -3 -7 -6z"/>
<path d="M1911 1035 c0 -36 5 -55 12 -55 8 0 12 19 12 55 0 36 -4 55 -12 55
-7 0 -12 -19 -12 -55z"/>
<path d="M1977 1082 c6 -4 20 -29 30 -56 l19 -48 20 48 c10 27 21 52 22 56 2
5 -1 8 -6 8 -6 0 -13 -13 -17 -30 -10 -43 -23 -46 -31 -5 -5 27 -11 35 -28 35
-13 0 -17 -3 -9 -8z"/>
<path d="M2113 1035 l0 -55 33 0 c18 0 35 4 39 9 3 6 -7 9 -22 8 -19 -1 -28 3
-31 16 -3 14 1 18 16 15 10 -2 19 2 20 7 1 6 -8 9 -18 7 -15 -2 -20 3 -20 19
0 17 5 20 25 17 14 -3 25 -1 25 3 0 5 -15 9 -34 9 l-33 0 0 -55z"/>
<path d="M2232 1035 c0 -35 4 -55 11 -55 8 0 11 17 9 50 -3 40 -1 50 11 50 24
0 32 -22 14 -35 -14 -10 -13 -16 15 -49 36 -44 50 -41 17 3 -18 25 -20 33 -9
46 17 21 -4 45 -40 45 -26 0 -27 -2 -28 -55z"/>
<path d="M2363 1074 c-3 -9 5 -26 22 -44 29 -30 20 -49 -15 -30 -15 8 -18 8
-14 -3 3 -8 17 -14 32 -13 38 1 42 39 8 61 -29 19 -25 39 6 29 14 -4 18 -2 14
5 -11 16 -46 13 -53 -5z"/>
<path d="M2474 1035 c0 -32 4 -55 11 -55 6 0 10 23 10 55 0 32 -4 55 -10 55
-7 0 -11 -23 -11 -55z"/>
<path d="M2540 1081 c0 -5 9 -7 21 -4 20 6 21 3 18 -46 -3 -33 0 -51 7 -51 7
0 12 22 13 55 1 55 1 55 -29 55 -17 0 -30 -4 -30 -9z"/>
<path d="M2615 1080 c3 -5 10 -10 16 -10 5 0 9 5 9 10 0 6 -7 10 -16 10 -8 0
-12 -4 -9 -10z"/>
<path d="M2678 1063 c11 -16 18 -40 16 -55 -2 -18 2 -28 10 -28 8 0 12 10 10
27 -1 15 6 39 17 55 18 24 18 28 4 28 -9 0 -14 -4 -11 -9 3 -5 -1 -14 -8 -20
-11 -10 -16 -8 -21 8 -3 12 -13 21 -21 21 -13 0 -12 -5 4 -27z"/>
<path d="M295 1071 c6 -10 90 -51 105 -51 5 0 10 13 10 28 0 28 -1 28 -60 30
-34 1 -58 -3 -55 -7z"/>
<path d="M965 1072 c-14 -10 -14 -72 0 -72 7 0 9 13 7 35 -4 37 7 45 29 19 10
-12 10 -20 1 -35 -7 -11 -8 -19 -2 -19 5 0 14 9 20 20 8 15 6 24 -10 40 -22
22 -29 24 -45 12z"/>
<path d="M1306 1045 c2 -19 -1 -35 -6 -35 -6 0 -10 8 -10 18 0 17 -9 19 -62
13 -5 -1 -8 -9 -9 -18 0 -13 -3 -11 -10 6 -11 28 -21 24 -13 -5 4 -15 14 -21
36 -22 27 -1 28 1 13 12 -13 9 -15 15 -7 20 7 4 12 2 12 -4 0 -6 4 -9 9 -6 5
3 11 -1 15 -9 3 -8 15 -15 26 -15 17 0 20 6 20 40 0 22 -4 40 -8 40 -5 0 -7
-16 -6 -35z"/>
<path d="M1485 1043 c1 -20 5 -38 11 -40 5 -2 9 9 8 24 -1 16 -3 34 -3 41 -1
6 -4 12 -8 12 -5 0 -8 -17 -8 -37z"/>
<path d="M142 1053 c-9 -3 -2 -13 19 -29 23 -17 36 -21 43 -13 8 7 4 16 -13
30 -24 20 -28 21 -49 12z"/>
<path d="M1368 1055 c-7 -7 3 -55 11 -55 8 0 7 47 -1 55 -2 3 -7 3 -10 0z"/>
<path d="M260 1030 c0 -21 51 -74 60 -62 3 4 16 -3 29 -15 l24 -23 -31 11
c-23 8 -36 7 -53 -1 -22 -12 -21 -13 17 -26 40 -14 74 -10 74 8 0 6 10 4 23
-5 22 -14 26 -13 58 6 25 16 31 17 21 5 -12 -15 -10 -18 13 -24 15 -4 31 -2
38 5 6 6 19 11 29 11 10 0 18 4 18 9 0 14 -37 23 -61 16 -20 -7 -20 -6 -3 19
9 15 15 29 12 31 -10 10 -70 -28 -78 -50 -14 -38 -28 -38 -46 0 -9 20 -24 35
-33 35 -10 0 -21 3 -25 8 -4 4 -11 7 -16 7 -4 0 -22 12 -39 28 -28 25 -31 25
-31 7z"/>
<path d="M1045 1037 c-20 -16 -13 -37 13 -36 11 0 12 3 5 6 -7 2 -13 9 -13 14
0 16 21 9 42 -13 14 -17 18 -18 14 -6 -3 10 2 21 11 26 11 7 12 11 4 16 -7 4
-18 3 -25 -3 -8 -7 -16 -7 -22 -1 -7 7 -16 5 -29 -3z"/>
<path d="M1140 1030 c0 -10 -6 -21 -12 -23 -8 -4 -7 -6 3 -6 9 -1 20 9 24 22
l8 22 4 -22 c2 -13 8 -23 13 -23 5 0 6 10 1 22 -10 27 -41 33 -41 8z"/>
<path d="M1404 1035 c-8 -20 13 -45 32 -38 16 6 19 39 3 48 -6 4 -10 1 -8 -6
3 -27 -1 -40 -11 -34 -6 4 -8 15 -5 26 7 22 -3 26 -11 4z"/>
<path d="M1550 1040 c-8 -5 -18 -6 -22 -4 -4 3 -8 -5 -8 -18 0 -17 3 -19 9 -9
6 9 11 10 15 2 4 -6 15 -11 24 -11 14 1 14 2 -3 12 -19 12 -19 12 5 18 19 5
21 7 9 12 -9 3 -22 2 -29 -2z"/>
<path d="M1763 1002 c-1 -10 4 -19 11 -19 8 0 11 8 8 19 -2 10 -7 18 -11 18
-4 0 -7 -8 -8 -18z"/>
<path d="M207 993 c-8 -13 59 -42 74 -32 11 7 10 11 -6 23 -21 16 -61 21 -68
9z"/>
<path d="M579 982 c-21 -18 -21 -19 -3 -24 21 -5 88 25 77 36 -12 12 -51 6
-74 -12z"/>
</g>
</svg>
