<svg xmlns="http://www.w3.org/2000/svg" data-name="Layer 1" viewBox="0 0 700 550"><path d="M299.88035 249.94891a107.89714 107.89714 0 01.97-26.72C300.75022 224.70892 299.5803 242.57892 299.88035 249.94891zM300.86033 223.12891a83.65821 83.65821 0 012.75-12.15s3.5.58 8.3999 1.16A109.60939 109.60939 0 01300.86033 223.12891zM359.2 223.13l-14.26-3.32c-.18 1.14-.37 2.24-.57 3.32v.01c3.53 7.93 6.78 15.97 9.92 24.06 3.14 8.1 6.08 16.26 8.92 24.47 2.74 8.24 5.4 16.51 7.75 24.87 2.31 8.37 4.41 16.8 5.98 25.34l-1.53-6.32c-.48-2.12-1.11-4.2-1.65-6.29-.55-2.1-1.1-4.2-1.72-6.28l-1.82-6.24q-3.75-12.45-7.95-24.76c-2.76-8.22-5.71-16.37-8.69-24.52q-2.235-6.105-4.55-12.19c-1.51-4.06-3.09-8.09-4.66-12.14a112.14 112.14 0 01-2.66 11.43c3.45 11.7 6.6 23.48 9.6 35.29 3.01 11.82 5.77 23.7 8.37 35.61 2.5 11.94 4.83 23.92 6.61 35.99.87 6.04 1.6 12.1 2.08 18.18a97.92054 97.92054 0 01-.06 18.28 101.86289 101.86289 0 00-.43-18.23c-.57-6.06-1.39-12.1-2.35-18.11-.99-6.01-2.02-12.01-3.17-17.99s-2.38-11.95-3.66-17.91c-2.51-11.92-5.29-23.78-8.13-35.63q-2.115-8.89507-4.36-17.76c-1.46-5.91-2.98-11.82-4.5-17.72a70.59244 70.59244 0 01-2.79 7.88v.01c.65 7.67 1.06 15.35 1.39 23.04.34 7.71.47 15.41.55 23.12 0 7.71-.11 15.43-.53 23.13a155.45283 155.45283 0 01-2.59 22.97l.74-5.73.5-5.75c.25-3.84.49-7.68.59-11.53.25-7.69.37-15.38.29-23.08.01-7.7-.14-15.4-.31-23.1l-.3-11.55-.33-11.52c-13.84 32.29-39.04 7.49-39.04 7.49a82.73284 82.73284 0 01-1.02 21.88c-2.88 16.12-8.44 42.98-15.76 57.92-10.93 22.33-35.08 60.6-38.27 74.27 0 0 35.54 39.19 100.7 16.86 65.15-22.32 66.98-12.76 66.98-12.76S399.75 288.75 359.2 223.13zM249.29 404a1.501 1.501 0 010-3A1.501 1.501 0 01249.29 404zm7.92 5.04a1.501 1.501 0 010-3A1.501 1.501 0 01257.21 409.04zm9.36 5.76a1.501 1.501 0 010-3A1.501 1.501 0 01266.57 414.8zm10.44 4.32a1.501 1.501 0 010-3A1.501 1.501 0 01277.01 419.12zM288.17 422a1.501 1.501 0 010-3A1.501 1.501 0 01288.17 422zm11.52 2.52a1.501 1.501 0 010-3A1.501 1.501 0 01299.69 424.52zm12.24.36a1.501 1.501 0 010-3A1.501 1.501 0 01311.93 424.88zm11.52-1.08a1.501 1.501 0 010-3A1.501 1.501 0 01323.45 423.8zm11.52-3.6a1.501 1.501 0 010-3A1.501 1.501 0 01334.97 420.2zm11.88-3.24a1.501 1.501 0 010-3A1.501 1.501 0 01346.85 416.96zM358.73 413a1.501 1.501 0 010-3A1.501 1.501 0 01358.73 413zm13.32-4.32a1.501 1.501 0 010-3A1.501 1.501 0 01372.05 408.68zm13.68-3.6a1.501 1.501 0 010-3A1.501 1.501 0 01385.73 405.08zm11.16-1.8a1.501 1.501 0 010-3A1.501 1.501 0 01396.89 403.28zm10.08-.72a1.501 1.501 0 010-3A1.501 1.501 0 01406.97 402.56zM343.24865 92.82107s-5.92335-.22782-6.83464 7.74592-9.79631 5.92335-9.79631 5.92335-4.3286.22782-2.506 5.69553 4.3286 3.873 4.3286 3.873.597 11.34908 7.5181 12.53016c0 0-16.21891 8.4098-19.5603-.48807a7.53871 7.53871 0 01-.33646-3.72772 18.35142 18.35142 0 011.83947-5.782 14.81458 14.81458 0 001.862-7.56276 14.35411 14.35411 0 00-.89124-4.31032c-2.05039-5.46771 0-17.99787 16.85876-17.3144C335.73055 89.40376 341.88172 88.49247 343.24865 92.82107z"/><path d="M317.48911,129.90042c-.711,1.67175-1.44873,3.33038-2.18945,4.98749l-.08728-.40607q3.48423,2.5871,7.0813,5.03314c2.39447,1.6272,4.86169,3.13733,7.337,4.61212a70.93974,70.93974,0,0,0,7.64639,3.9375,23.53993,23.53993,0,0,0,8.032,2.19214l-.57837,1.57434a28.92038,28.92038,0,0,1-5.8363-6.76843,13.76545,13.76545,0,0,1-1.74591-4.2088,7.39736,7.39736,0,0,1,.46048-4.58606,15.86318,15.86318,0,0,1,2.34912-3.80329,28.78561,28.78561,0,0,1,3.00946-3.22686,15.79978,15.79978,0,0,1,3.71466-2.40924,8.58246,8.58246,0,0,0,1.81641-1.05719,6.93457,6.93457,0,0,0,1.3612-1.55445,13.11389,13.11389,0,0,0,1.58884-3.91412,26.137,26.137,0,0,0,.70172-4.236,75.86481,75.86481,0,0,0,.2529-8.64454l-.04337-2.17156c-.05667-.70307-.064-1.39679-.18393-2.07929a13.1654,13.1654,0,0,0-1.17651-3.92029A11.97354,11.97354,0,0,0,345.4054,93.681l-.06683-.02967a.91439.91439,0,0,1-.46457-1.20685.92367.92367,0,0,1,.68634-.531A7.17282,7.17282,0,0,1,348.589,92.06a8.27971,8.27971,0,0,1,1.40625.49884,9.96,9.96,0,0,1,1.27295.76832,10.84376,10.84376,0,0,1,3.41058,4.56982,28.86652,28.86652,0,0,1,1.72083,10.67078A38.2702,38.2702,0,0,0,357.573,118.6473a15.83681,15.83681,0,0,0,1.96267,4.486,8.40928,8.40928,0,0,0,1.54767,1.77215,6.80914,6.80914,0,0,0,.93479.6449,4.08464,4.08464,0,0,0,.925.37463l.06405.01124a.83938.83938,0,0,1,.28992,1.54461,97.00646,97.00646,0,0,1-11.73633,6.11279,40.99517,40.99517,0,0,1-6.2598,2.20685,15.46248,15.46248,0,0,1-3.31008.492,3.997,3.997,0,0,1-3.14463-1.05182.09983.09983,0,0,1,.14093-.14111l.00647.00592a3.77129,3.77129,0,0,0,2.9726.70843,14.89179,14.89179,0,0,0,3.13788-.70459,48.70761,48.70761,0,0,0,5.98663-2.53088c1.9462-.96961,3.85385-2.02094,5.7319-3.12305,1.878-1.09515,3.75531-2.22162,5.56241-3.40332l.35394,1.55566a5.19544,5.19544,0,0,1-1.52508-.51684,8.51616,8.51616,0,0,1-1.24545-.79706,10.21013,10.21013,0,0,1-1.95939-2.0874A16.83376,16.83376,0,0,1,355.638,119.216c-.26608-.87085-.45157-1.75641-.65326-2.63757-.13483-.88709-.31262-1.77381-.40958-2.663-.07885-.8894-.18225-1.78-.23922-2.66962l-.075-2.66784a28.81367,28.81367,0,0,0-1.4736-9.89722,8.87843,8.87843,0,0,0-2.68158-3.78564,8.19025,8.19025,0,0,0-.95108-.60114,6.37873,6.37873,0,0,0-1.04968-.39233,5.50791,5.50791,0,0,0-2.15579-.173l.15493-1.76739A12.73513,12.73513,0,0,1,349.9,94.729a13.335,13.335,0,0,1,2.56836,3.83734,14.41125,14.41125,0,0,1,1.17133,4.42261c.09363.75238.06836,1.51843.08972,2.26208l-.06223,2.182a83.67439,83.67439,0,0,1-.64785,8.73755,33.82849,33.82849,0,0,1-.86783,4.31964,13.77772,13.77772,0,0,1-1.74,4.089,7.56968,7.56968,0,0,1-1.52051,1.68024,10.2623,10.2623,0,0,1-1.94037,1.1112,15.18444,15.18444,0,0,0-3.54288,2.34858,19.73257,19.73257,0,0,0-4.85946,6.90789c-1.07245,2.61487.02524,5.35742,1.57461,7.65876a31.51235,31.51235,0,0,0,5.72693,6.16943l.01737.01459a.88337.88337,0,0,1-.5958,1.55981,23.26671,23.26671,0,0,1-8.69324-2.36328,60.74433,60.74433,0,0,1-7.75805-4.1983c-2.48975-1.54462-4.88037-3.23212-7.21918-4.97779-2.33893-1.7481-4.62732-3.55157-6.81549-5.49182l-.01788-.01581a.31991.31991,0,0,1-.06946-.3905c.85956-1.59875,1.72217-3.196,2.61151-4.78a.10015.10015,0,0,1,.1795.0882Z"/><path d="M342.87961 129.76987a16.10918 16.10918 0 014.68652-3.02867c5.29171-2.44229 5.47883-13.15271 5.47883-21.61779 0-9.34066-7.29028-12.30234-7.29028-12.30234s9.56849-2.05039 9.56849 15.49184 7.51809 18.45351 7.51809 18.45351-19.95093 12.73526-23.92121 8.40666zM335.42051 103.68881a4.50377 4.50377 0 011.8241-1.02912 6.73054 6.73054 0 012.08926-.30712 6.95494 6.95494 0 012.07514.35479 5.74678 5.74678 0 011.83963.98145c-.70575-.05023-1.35419-.16052-2.00541-.21887-.64642-.07587-1.28662-.10334-1.92309-.11811a17.82324 17.82324 0 00-1.91852.06922C336.75581 103.48074 336.10856 103.56332 335.42051 103.68881z"/><path d="M347.34943 103.68881a4.23986 4.23986 0 011.35483-.62366 6.20969 6.20969 0 011.45194-.22882 5.43956 5.43956 0 011.47986.158 3.07947 3.07947 0 011.34506.69452c-1.016.06372-1.86951.11175-2.79364.14648A13.547 13.547 0 01347.34943 103.68881zM338.92005 109.43791a1.12567 1.12567 0 000-2.25 1.12567 1.12567 0 000 2.25z"/><path fill="#b21919" d="M345.52686,101.92618a1.12567,1.12567,0,0,0,0-2.25,1.12567,1.12567,0,0,0,0,2.25Z"/><path d="M326.65008 115.41663a1.12567 1.12567 0 000-2.25 1.12567 1.12567 0 000 2.25zM349.172 108.98227a1.12567 1.12567 0 000-2.25 1.12567 1.12567 0 000 2.25zM341.88172 117.42575a11.03882 11.03882 0 003.67453.8844 5.57821 5.57821 0 001.78565-.21021 13.98845 13.98845 0 001.83011-.67419 3.991 3.991 0 01-1.543 1.39978 4.43889 4.43889 0 01-1.01307.386 5.46174 5.46174 0 01-1.08682.09766 4.83878 4.83878 0 01-2.06534-.54138A4.29933 4.29933 0 01341.88172 117.42575zM343.24864 112.18588a12.57679 12.57679 0 001.9338 1.26355 6.49159 6.49159 0 00.994.41528c.35556.12982.73611.21259 1.173.37152a2.32172 2.32172 0 01-1.27511.4021 2.74114 2.74114 0 01-1.34277-.297 2.85215 2.85215 0 01-1.03916-.89277A2.21749 2.21749 0 01343.24864 112.18588zM352.81645 161.89535a.4992.4992 0 01-.49122-.41015c-.35253-1.93946-5.46435-7.87989-7.4038-10.00489a.49978.49978 0 01.73828-.67383c.73388.80372 7.18115 7.92676 7.64892 10.499a.49984.49984 0 01-.40234.582A.56336.56336 0 01352.81645 161.89535zM315.0001 134.74118a51.55588 51.55588 0 00-9.18219 14.32361 46.63168 46.63168 0 00-3.75977 16.36584c-.03167 1.40808.02082 2.80676.03046 4.23.0517 1.4104.15668 2.83112.26038 4.2467a79.17466 79.17466 0 001.08386 8.42786c.24011 1.40234.57141 2.73261.9375 4.12647.37689 1.41211.69342 2.83813.93524 4.27508a50.01595 50.01595 0 01.74188 8.70435l-.38366-.57129c2.1662.92114 4.42944 1.73626 6.6914 2.4978 2.27179.7497 4.57941 1.39423 6.90485 2.0036-1.18836-.17132-2.38385-.32879-3.56268-.57013-1.18287-.22363-2.35926-.48279-3.53321-.75744a62.29626 62.29626 0 01-6.96765-2.03095.57722.57722 0 01-.38037-.50928l-.00342-.06231a55.11271 55.11271 0 00-1.13672-8.39295c-.294-1.38238-.62194-2.75622-1.0271-4.10565-.40106-1.37115-.80279-2.81848-1.08453-4.23987a78.64611 78.64611 0 01-1.43866-17.35718 44.0406 44.0406 0 014.42639-16.86425A44.5792 44.5792 0 01315.0001 134.74118zM319.08933 149.90469a26.0804 26.0804 0 0112.5626 1.41663 26.83136 26.83136 0 0110.66778 7.00317 37.8119 37.8119 0 013.83194 5.10028 60.35677 60.35677 0 012.98431 5.57282 68.51012 68.51012 0 014.34586 11.84643.63963.63963 0 01-.28622.70917l-.05124.03088c-2.14087 1.29743-4.3201 2.505-6.516 3.69513q-3.30684 1.75653-6.67222 3.41724c-2.25613 1.08288-4.53854 2.12585-6.9086 3.00146-1.18688.43518-2.38186.86267-3.63265 1.18988a16.36817 16.36817 0 01-1.93458.40528 5.10845 5.10845 0 01-2.281-.07581.83115.83115 0 01-.51386-.44885q-1.49139-3.29718-2.9104-6.63-1.44653-3.31924-2.76519-6.70129a.10033.10033 0 01.1795-.08813q1.86429 3.114 3.61377 6.28442 1.77355 3.15856 3.46851 6.35577l-.51355-.4486a3.9421 3.9421 0 001.41961-.08936 14.57817 14.57817 0 001.69483-.451c1.13885-.36554 2.28537-.78589 3.419-1.24622 2.26456-.936 4.52661-1.92559 6.77793-2.94842 4.511-2.03 8.95993-4.24542 13.42031-6.41382l-.33737.73975a43.8736 43.8736 0 00-3.56146-11.874 30.78845 30.78845 0 00-3.20987-5.30413 37.85553 37.85553 0 00-4.15054-4.53766 36.51907 36.51907 0 00-10.15653-6.6153 34.37036 34.37036 0 00-11.96408-2.69678l-.00928-.00036a.09988.09988 0 01-.01129-.19861z"/><path d="M337.73563 140.675a9.6159 9.6159 0 015.37446 1.1366 11.23357 11.23357 0 014.11111 3.79852 15.5072 15.5072 0 012.06674 5.17456c.157.91065.26792 1.82862.361 2.73914-.00595.92187.02128 1.83588-.01644 2.74548-.18882-.89978-.31269-1.79516-.46973-2.68268l-.63223-2.61407-.43076-1.26239-.20795-.63116c-.08307-.20447-.18542-.40064-.27682-.601l-.54474-1.20233-.68579-1.119A12.08438 12.08438 0 00337.73563 140.675zM323.43815 132.18081a37.39853 37.39853 0 003.38843 1.84442 35.88129 35.88129 0 003.50616 1.48639 36.85712 36.85712 0 003.63437 1.13831c1.23258.33325 2.48789.58459 3.76852.86676a16.11189 16.11189 0 01-3.92294-.10181 18.74572 18.74572 0 01-7.36508-2.71087A13.24467 13.24467 0 01323.43815 132.18081zM351.65019 181.61941a86.27477 86.27477 0 016.00689 7.8299 85.27256 85.27256 0 015.18418 8.39727 85.2615 85.2615 0 01-6.0069-7.82989A86.27678 86.27678 0 01351.65019 181.61941z"/><path d="M347.61457,166.734c1.85443-2.18359,3.7757-4.30413,5.73886-6.38482q2.95134-3.11463,6.03635-6.10138c2.069-1.97815,4.15668-3.94141,6.35867-5.79187,1.11371-.91022,2.22815-1.82349,3.42539-2.6496.59781-.41528,1.20187-.82349,1.84378-1.20148a10.87815,10.87815,0,0,1,1.00735-.5354,3.43854,3.43854,0,0,1,1.29593-.36084.45684.45684,0,0,1,.21915.04059l.01224.00574c1.96572.9082,3.90014,1.87421,5.86734,2.76849,1.95935.91132,3.93121,1.79242,5.90722,2.66693l5.93488,2.62623c.98855.44531,1.97064.90679,2.94919,1.39544.49014.24237.97665.49939,1.463.77808.24444.14715.48425.28381.73331.46551a2.96132,2.96132,0,0,1,.38263.304c.06906.06756.12905.11676.20321.20245a2.04371,2.04371,0,0,1,.23078.41986.60729.60729,0,0,1-.33609.79035l-.05954.02057-.12928.03686a65.1205,65.1205,0,0,0-11.99966,4.92676c-1.93335.98938-3.79263,2.11767-5.63556,3.26111l-2.73325,1.76935-2.65939,1.88067a90.52223,90.52223,0,0,0-9.95529,8.42761c-1.62894,1.46064-3.0567,3.11573-4.56656,4.70551-1.48923,1.60828-2.82932,3.3454-4.29977,4.99622l-.005.00561a.1.1,0,0,1-.159-.12018c.59207-.92981,1.20086-1.8515,1.815-2.77191.63162-.90631,1.17825-1.88391,1.89633-2.72705,1.38592-1.72449,2.68842-3.53479,4.22436-5.14246.75644-.81323,1.49067-1.65124,2.26844-2.44641l2.41705-2.30365c.79224-.78509,1.6507-1.49518,2.50967-2.2055.87143-.69391,1.69162-1.45557,2.60679-2.09418a65.51607,65.51607,0,0,1,11.39279-6.9848,54.0855,54.0855,0,0,1,12.60241-4.52307l-.52481.84759a.057.057,0,0,0,.02863.06922l-.07935-.08631a1.76221,1.76221,0,0,0-.23568-.21655c-.17508-.1518-.39444-.30182-.6016-.449-.42981-.29187-.8782-.57525-1.33688-.84729-.916-.546-1.85953-1.06158-2.80792-1.56909q-2.84552-1.52554-5.79187-2.87188-2.93478-1.36112-5.93543-2.57789c-1.99292-.82543-4.02771-1.55828-6.04352-2.31964l.231.04633a3.09531,3.09531,0,0,0-.721.31152,9.6658,9.6658,0,0,0-.84271.53986c-.5599.39258-1.1076.82922-1.64923,1.27344-1.07452.90338-2.15115,1.82238-3.20627,2.768q-3.1977,2.8006-6.36392,5.67493l-6.34824,5.73114q-3.18818,2.8569-6.43271,5.66687a.10029.10029,0,0,1-.1423-.14057Z"/><polygon points="361.019 159.8 366.486 165.224 375.599 157.75 369.676 152.966 361.019 159.8"/><path d="M389.73026,157.74459a24.97434,24.97434,0,0,1,3.39649,3.13239,18.262,18.262,0,0,1,1.4592,1.85986,5.3624,5.3624,0,0,1,.97842,2.48712.73317.73317,0,0,1-.50815.76655l-.11014.03472c-.59948.18982-1.20764.34644-1.81106.52124-.60587.16541-1.20609.35236-1.81656.50013l.4314-1.475a11.93876,11.93876,0,0,1,1.29382,1.78015,13.77521,13.77521,0,0,1,.97726,1.917,16.91015,16.91015,0,0,1,1.13694,4.11219l.00647.04425a.414.414,0,0,1-.34983.46954l-.02994.0033a30.70228,30.70228,0,0,0-9.8027,2.61627,98.77061,98.77061,0,0,0-9.10489,4.4707c-2.91452,1.68817-5.79864,3.41962-8.55212,5.37116-2.81107,1.88281-5.40244,4.05474-8.11069,6.1936a.10063.10063,0,0,1-.14191-.00958.10638.10638,0,0,1-.00418-.127,42.96165,42.96165,0,0,1,7.149-7.51092,46.88809,46.88809,0,0,1,4.176-3.12415c.71457-.49737,1.48932-.8988,2.23111-1.35242a23.45176,23.45176,0,0,1,2.29975-1.22924,46.869,46.869,0,0,1,9.68643-3.7544c3.352-.8963,6.666-1.66852,10.07736-2.40039l-.37314.51685a15.34206,15.34206,0,0,0-1.62256-3.61975c-.33462-.567-.703-1.11194-1.07946-1.64576-.38214-.51739-.78788-1.06982-1.18006-1.50537a.90357.90357,0,0,1,.42163-1.47265l.00983-.00257c.60449-.17071,1.21927-.30218,1.82837-.4552.61157-.14367,1.21838-.30548,1.83389-.43408l-.6181.801a4.34721,4.34721,0,0,0-.58417-1.7439c-.32568-.63776-.72433-1.25909-1.12524-1.88641-.8244-1.24274-1.71417-2.47089-2.61-3.70789a.101.101,0,0,1,.01978-.14142A.10365.10365,0,0,1,389.73026,157.74459Z"/><path d="M357.24574 189.733a72.71434 72.71434 0 016.93316-7.89783 76.00184 76.00184 0 017.92682-6.93768 56.30043 56.30043 0 018.957-5.57648 33.781 33.781 0 0110.02838-3.14154q-1.26214.3804-2.51767.72894l-.62716.17639-.60733.24238-1.21137.48461-1.21493.4643c-.39609.17676-.783.37646-1.17444.56329-.77442.39282-1.574.72913-2.32434 1.166a73.2097 73.2097 0 00-8.70569 5.68951c-2.7898 2.07178-5.41092 4.3653-8.00018 6.69385-1.29773 1.16248-2.55536 2.3714-3.78855 3.60486C359.65827 187.20175 358.4499 188.462 357.24574 189.733zM307.095 200.06582a18.79342 18.79342 0 01.4986 5.55713 16.70667 16.70667 0 01-.38117 2.78607 5.78686 5.78686 0 01-1.17456 2.57526 12.92915 12.92915 0 00.40357-2.69568l.15417-2.71844A51.31514 51.31514 0 01307.095 200.06582zM245.43744 432.57831s1.16442-15.49184 5.0627-16.70688c0 0 23.339 29.76862 33.97066 25.516 0 0 3.18949-2.12633 1.215-6.98651 0 0 18.37757 17.16252 18.37757 20.95954s-16.25124 8.80909-30.67991 0-15.64372-15.18807-15.64372-15.18807l-1.36692 3.64513-11.54294-1.215zM254.16764 411.817a6.93966 6.93966 0 01-1.46344 2.36274 6.858 6.858 0 01-2.204 1.69165 6.99223 6.99223 0 011.46344-2.36274A7.06566 7.06566 0 01254.16764 411.817zM280.10636 424.08584c.94892 1.769 1.75781 3.53284 2.64392 5.261.43714.86536.90082 1.71179 1.37281 2.55914.4917.83557 1.00543 1.65259 1.56274 2.49494a11.889 11.889 0 01-3.82605-4.60035 19.29077 19.29077 0 01-1.13177-2.7796A13.47571 13.47571 0 01280.10636 424.08584zM393.21741 436.22345s31.06194 3.4134 40.10516-6.79682a4.414 4.414 0 00-2.93394-7.33265 35.71793 35.71793 0 00-9.07328.61208s29.313-9.87225 32.65436-7.44216 2.582 25.66785-41.46344 30.37615l5.16394 9.56849-16.09936 5.46771s-.60752-8.50532-3.64513-10.93542S391.09108 441.69115 393.21741 436.22345z"/><path d="M412.50626 408.12552c.30338 1.51751.67063 3.00311 1.06772 4.46844a29.94958 29.94958 0 001.5037 4.25726 12.87939 12.87939 0 002.38565 3.70887 7.36044 7.36044 0 003.852 2.146 6.209 6.209 0 01-4.385-1.57593 10.98346 10.98346 0 01-2.76355-3.86761 19.45526 19.45526 0 01-1.35077-4.49579A20.10231 20.10231 0 01412.50626 408.12552zM381.09385 410.05813a24.61719 24.61719 0 0110.704 10.95795 25.05262 25.05262 0 011.41327 3.655 21.59967 21.59967 0 01.65912 3.85589 14.97959 14.97959 0 01.09762 1.94623l-.08612 1.94367a12.28682 12.28682 0 01-.28564 1.916c-.1156.63477-.2432 1.26538-.37869 1.89069a31.47133 31.47133 0 00-.11109-7.60639 27.13864 27.13864 0 00-.80365-3.67907 25.69789 25.69789 0 00-1.40411-3.48584 28.22063 28.22063 0 00-4.16284-6.27137 31.439 31.439 0 00-2.67084-2.70575A27.6987 27.6987 0 00381.09385 410.05813zM326.888 192.52755A93.43146 93.43146 0 01315.888 209.54348c-1.04968 1.33081-2.15747 2.615-3.27789 3.88477-1.11719 1.273-2.25867 2.52985-3.4549 3.73254a68.90906 68.90906 0 01-7.63544 6.77967l.38617-.81128c-.00506.08246-.01367.16516-.02569.24664l.00805-.07666c-.524 4.42065-1.03277 8.85791-1.29266 13.3031-.13306 2.22278-.20746 4.44806-.23572 6.67236-.01648 2.2226.00879 4.45215.17414 6.64759l-.19483-.43958a37.91546 37.91546 0 007.621 5.04859 28.59876 28.59876 0 008.44831 2.85949 15.53521 15.53521 0 008.43078-.88824 18.304 18.304 0 006.8306-5.10407 34.21647 34.21647 0 004.90066-7.4646 69.19487 69.19487 0 003.57926-8.43859c2.05261-5.81781 3.5054-11.8808 4.992-17.96747a.15032.15032 0 01.1782-.116.15521.15521 0 01.11877.15845 98.2141 98.2141 0 01-2.96573 18.64849 60.13911 60.13911 0 01-3.21765 9.018c-.34647.72821-.67493 1.46381-1.05267 2.1795l-1.22065 2.112a21.876 21.876 0 01-1.36209 2.0434l-.71634 1.00409c-.25412.3244-.54718.6239-.81952.93652a22.82814 22.82814 0 01-3.6614 3.42493 17.917 17.917 0 01-4.47943 2.42077 18.16312 18.16312 0 01-10.0022.71558 26.83778 26.83778 0 01-9.02869-3.67792 41.30244 41.30244 0 01-7.4909-5.98l-.02356-.02362a.58884.58884 0 01-.17139-.41638c.00751-2.25977.092-4.48993.17981-6.72308l.227-6.69208c.13629-4.46118.1203-8.9259.17889-13.40137l.00806-.077a.10859.10859 0 00-.00568.047l.38636-.81158c2.39874-2.22724 4.71325-4.65875 7.03241-7.02564 2.30792-2.39087 4.57763-4.82971 6.7807-7.32544q3.30716-3.74368 6.44482-7.65216c2.092-2.60626 4.13367-5.26037 6.17365-7.94372a.15066.15066 0 01.25549.15722zM340.9307 158.56137a.50962.50962 0 01-.10742-.01172.4993.4993 0 01-.38135-.59473 91.85629 91.85629 0 001.55127-9.53808.50007.50007 0 11.99414.10937 92.807 92.807 0 01-1.56884 9.6416A.49926.49926 0 01340.9307 158.56137z"/><path d="M328.58225 192.08944A104.80273 104.80273 0 00341.86408 213.056a38.38511 38.38511 0 004.26328 4.45166 22.96693 22.96693 0 005.07678 3.4931 16.455 16.455 0 005.906 1.67834 16.91581 16.91581 0 006.05914-.60467 15.33324 15.33324 0 005.27328-2.787 18.7288 18.7288 0 003.92115-4.48444 35.7592 35.7592 0 004.29043-11.32818 94.66888 94.66888 0 001.57984-24.75189.10028.10028 0 01.09359-.10651.10176.10176 0 01.10465.08008 64.54107 64.54107 0 01.3078 25.225 33.40006 33.40006 0 01-4.80759 11.91993 18.51682 18.51682 0 01-4.53085 4.7102 15.39988 15.39988 0 01-5.96729 2.58533 20.3016 20.3016 0 01-12.50466-1.54859 33.67933 33.67933 0 01-10.305-7.421 50.33772 50.33772 0 01-7.33188-10.36767 60.0855 60.0855 0 01-4.89807-11.64075.10015.10015 0 01.06769-.12445A.105.105 0 01328.58225 192.08944zM300.86009 223.13119c-.53534 3.90039-1.267 7.772-2.05884 11.63043q-1.17939 5.79072-2.67853 11.515a193.25156 193.25156 0 01-7.28345 22.52618A111.34 111.34 0 01278.01 289.94748a58.19591 58.19591 0 01-7.64185 9.225 33.07562 33.07562 0 01-9.96734 6.80011l.52722-.91437a41.17946 41.17946 0 002.22656 8.7309 31.973 31.973 0 004.30109 7.92273 20.65956 20.65956 0 006.82336 5.82269 17.68654 17.68654 0 004.26691 1.57923 23.886 23.886 0 004.55414.63745 20.00405 20.00405 0 01-9.10328-1.62561 20.43607 20.43607 0 01-7.44934-5.68219 31.11584 31.11584 0 01-4.80694-8.09284 39.20117 39.20117 0 01-2.5683-9.08618.84581.84581 0 01.49451-.90039l.03283-.01428a32.33657 32.33657 0 009.32636-6.5633 56.25734 56.25734 0 007.33386-8.95709A118.19871 118.19871 0 00287.162 268.12167a234.47232 234.47232 0 007.79077-22.17291C297.18937 238.42575 299.20823 230.82577 300.86009 223.13119z"/><path d="M266.21027 311.479a1.5009 1.5009 0 000-3 1.5009 1.5009 0 000 3zM270.17027 319.399a1.5009 1.5009 0 000-3 1.5009 1.5009 0 000 3zM277.01027 325.159a1.5009 1.5009 0 000-3 1.5009 1.5009 0 000 3zM304.73027 248.479a1.5009 1.5009 0 000-3 1.5009 1.5009 0 000 3zM312.29027 252.799a1.5009 1.5009 0 000-3 1.5009 1.5009 0 000 3zM321.29027 254.239a1.5009 1.5009 0 000-3 1.5009 1.5009 0 000 3zM330.29027 248.119a1.5009 1.5009 0 000-3 1.5009 1.5009 0 000 3zM335.33027 238.759a1.5009 1.5009 0 000-3 1.5009 1.5009 0 000 3zM338.21027 230.839a1.5009 1.5009 0 000-3 1.5009 1.5009 0 000 3zM341.09027 221.479a1.5009 1.5009 0 000-3 1.5009 1.5009 0 000 3z"/><path fill="#b21919" d="M344.33012,94.47934a.49967.49967,0,0,1-.47657-.34864l-.646-2.04a.5.5,0,0,1,.95312-.30273l.646,2.04a.5.5,0,0,1-.32568.62793A.50879.50879,0,0,1,344.33012,94.47934Z"/><path d="M226.27207 292.00709a65.12937 65.12937 0 00-2.40448 8.18554 67.19119 67.19119 0 00-1.41858 8.38709 62.64242 62.64242 0 00-.32751 8.47436 46.75913 46.75913 0 001.07532 8.38227 37.96674 37.96674 0 0012.82159 21.34973 40.184 40.184 0 003.34894 2.62695c.55829.4436 1.17822.79419 1.77453 1.18256l1.797 1.1596a41.10424 41.10424 0 01-13.37536-10.60833l-1.33088-1.70362-1.1784-1.81353c-.4129-.59308-.72864-1.24341-1.08-1.87311a20.27671 20.27671 0 01-.97827-1.92871 37.70357 37.70357 0 01-2.77484-8.17786 50.15547 50.15547 0 01-.53241-17.16125A60.40735 60.40735 0 01226.27207 292.00709zM209.23142 316.32416a65.12833 65.12833 0 00.366 8.52356 67.19394 67.19394 0 001.36414 8.39612 62.64182 62.64182 0 002.425 8.12659 46.761 46.761 0 003.72309 7.58667 37.966 37.966 0 0019.02588 16.06921 40.18933 40.18933 0 004.01751 1.40558c.67157.23969 1.37146.37146 2.06122.54651l2.07508.51764A41.105 41.105 0 01228.206 361.7721l-1.80945-1.18292L224.696 359.253c-.58227-.428-1.091-.94165-1.62683-1.42426a20.29741 20.29741 0 01-1.54834-1.50976 37.7047 37.7047 0 01-5.26569-6.84473 50.1547 50.1547 0 01-6.04248-16.07111A60.40569 60.40569 0 01209.23142 316.32416zM426.44035 273.98642a65.13525 65.13525 0 001.36865-8.4209 67.1869 67.1869 0 00.36536-8.49835 62.64157 62.64157 0 00-.72812-8.44941 46.762 46.762 0 00-2.10862-8.18365 37.96723 37.96723 0 00-15.37527-19.59094 40.17606 40.17606 0 00-3.64941-2.19043c-.60907-.37085-1.26777-.64167-1.90775-.95288l-1.92715-.92731a41.10452 41.10452 0 0114.58993 8.864l1.53226 1.52509 1.39462 1.653c.48343.53717.87753 1.14319 1.30444 1.72437a20.27941 20.27941 0 011.21036 1.79217 37.70544 37.70544 0 013.76956 7.76966 50.156 50.156 0 012.66086 16.96209A60.40746 60.40746 0 01426.44035 273.98642zM440.32713 247.7402a65.12984 65.12984 0 00-1.42234-8.412 67.20142 67.20142 0 00-2.39694-8.16156 62.63969 62.63969 0 00-3.41614-7.7622 46.75585 46.75585 0 00-4.63693-7.06519 37.96724 37.96724 0 00-20.87527-13.58044 40.193 40.193 0 00-4.16107-.89539c-.69617-.15442-1.407-.19812-2.11319-.28613l-2.12333-.25574a41.10287 41.10287 0 0116.67 3.68091l1.94247.94891 1.85349 1.1145c.631.35236 1.19955.79877 1.79116 1.21106a20.283 20.283 0 011.724 1.30567 37.70651 37.70651 0 016.07541 6.13727 50.15528 50.15528 0 017.99277 15.19561A60.40843 60.40843 0 01440.32713 247.7402z"/></svg>